<!--?xml version="1.0" standalone="no"?-->
<svg id="sw-js-blob-svg" viewBox="0 0 100 100" xmlns="http://www.w3.org/2000/svg" version="1.1">
    <defs> 
        <linearGradient id="sw-gradient" x1="0" x2="1" y1="1" y2="0">
            <stop id="stop1" stop-color="rgba(143.78, 178.763, 138.33, 1)" offset="0%"></stop>
            <stop id="stop2" stop-color="rgba(167.223, 255, 164.211, 1)" offset="100%"></stop>
        </linearGradient>
    </defs>
    <path fill="url(#sw-gradient)" d="M23,-28.6C28.6,-22.7,30.9,-14.3,32.4,-5.7C33.9,2.8,34.4,11.5,29.8,15.1C25.2,18.7,15.5,17.2,7.9,18.6C0.4,20,-5,24.2,-12.5,25.4C-19.9,26.5,-29.5,24.5,-33.8,18.7C-38,12.9,-36.9,3.3,-33.4,-4.1C-30,-11.5,-24.1,-16.7,-18.2,-22.4C-12.2,-28.2,-6.1,-34.6,1.3,-36.1C8.7,-37.7,17.4,-34.4,23,-28.6Z" width="100%" height="100%" transform="translate(50 50)" stroke-width="0" style="transition: all 0.3s ease 0s;" stroke="url(#sw-gradient)"></path>
</svg>