<!--?xml version="1.0" standalone="no"?-->
<svg id="sw-js-blob-svg" viewBox="0 0 100 100" xmlns="http://www.w3.org/2000/svg" version="1.1">
        <defs> 
            <linearGradient id="sw-gradient" x1="0" x2="1" y1="1" y2="0">
                <stop id="stop1" stop-color="rgba(255, 136.963, 43.28, 1)" offset="0%"></stop>
                <stop id="stop2" stop-color="rgba(255, 225.191, 184.367, 1)" offset="100%"></stop>
            </linearGradient>
        </defs>
    <path fill="url(#sw-gradient)" d="M9.7,-16.8C13.6,-14.6,18.5,-14,23.2,-11.5C28,-9,32.6,-4.5,33.8,0.7C34.9,5.8,32.6,11.7,27.8,14.1C23.1,16.6,15.8,15.8,10.8,16.6C5.7,17.5,2.9,20.1,-1.2,22.2C-5.2,24.2,-10.5,25.7,-13.1,23.4C-15.8,21.2,-16,15.3,-21.5,10.8C-27,6.2,-37.7,3.1,-41.5,-2.2C-45.3,-7.5,-42.1,-15,-37.3,-20.6C-32.4,-26.2,-26,-30,-19.5,-30.7C-13,-31.4,-6.5,-29,-1.8,-25.9C2.9,-22.8,5.8,-19,9.7,-16.8Z" width="100%" height="100%" transform="translate(50 50)" stroke-width="0" style="transition: all 0.3s ease 0s;" stroke="url(#sw-gradient)"></path>
</svg>