<!--?xml version="1.0" standalone="no"?-->
<svg id="sw-js-blob-svg" viewBox="0 0 100 100" xmlns="http://www.w3.org/2000/svg" version="1.1">
        <defs> 
            <linearGradient id="sw-gradient" x1="0" x2="1" y1="1" y2="0">
                <stop id="stop1" stop-color="rgba(160.625, 27.318, 178.799, 1)" offset="0%"></stop>
                <stop id="stop2" stop-color="rgba(249.46, 233.315, 255, 1)" offset="100%"></stop>
            </linearGradient>
        </defs>
    <path fill="url(#sw-gradient)" d="M11.2,-18.1C14.7,-12.9,17.7,-9.8,19.8,-5.9C21.8,-1.9,22.7,2.9,21.9,7.7C21.1,12.5,18.6,17.3,14.6,20C10.7,22.8,5.3,23.5,1.3,21.7C-2.8,20,-5.7,15.8,-12.6,14.1C-19.5,12.3,-30.5,12.9,-35.2,9C-39.8,5,-38.2,-3.4,-34.9,-10.7C-31.7,-18,-26.8,-24.1,-20.7,-28.5C-14.6,-32.9,-7.3,-35.7,-1.7,-33.3C3.9,-30.9,7.7,-23.4,11.2,-18.1Z" width="100%" height="100%" transform="translate(50 50)" stroke-width="0" style="transition: all 0.3s ease 0s;" stroke="url(#sw-gradient)"></path>
</svg>