<!--?xml version="1.0" standalone="no"?-->
              <svg id="sw-js-blob-svg" viewBox="0 0 100 100" xmlns="http://www.w3.org/2000/svg" version="1.1">
                    <defs> 
                        <linearGradient id="sw-gradient" x1="0" x2="1" y1="1" y2="0">
                            <stop id="stop1" stop-color="rgba(255, 136.963, 43.28, 1)" offset="0%"></stop>
                            <stop id="stop2" stop-color="rgba(236.955, 184.367, 255, 1)" offset="100%"></stop>
                        </linearGradient>
                    </defs>
                <path fill="url(#sw-gradient)" d="M15.1,-25.1C17.3,-22.2,15,-14,19,-7.9C22.9,-1.8,32.9,2.2,35.1,6.9C37.3,11.6,31.6,17.1,26.3,22.3C21,27.6,16,32.6,9.9,34.9C3.8,37.2,-3.4,36.7,-7,31.9C-10.5,27.1,-10.3,18,-15.5,12.9C-20.6,7.9,-31.1,6.9,-36.5,2.2C-41.9,-2.5,-42.2,-11,-39,-17.8C-35.8,-24.6,-29.1,-29.7,-22,-30.3C-14.9,-31,-7.5,-27.1,-0.5,-26.4C6.5,-25.7,13,-28,15.1,-25.1Z" width="100%" height="100%" transform="translate(50 50)" stroke-width="0" style="transition: all 0.3s ease 0s;" stroke="url(#sw-gradient)"></path>
              </svg>